<svg width="46" height="46" viewBox="0 0 46 46" fill="none" xmlns="http://www.w3.org/2000/svg">
<rect width="46" height="46" rx="6" fill="url(#paint0_radial_205_147)"/>
<circle cx="23" cy="16" r="12" fill="url(#paint1_radial_205_147)"/>
<path d="M22 6L24 7.5V15.5L22 16.5L22 6Z" fill="#8D8383"/>
<path d="M22 16.5L24 15.5L28.4041 20.803L27.8743 23.2462L22 16.5Z" fill="#4F4A4A"/>
<rect x="5.91431" y="30.2286" width="34.8286" height="8.54286" fill="#4F4A4A"/>
<path d="M14.436 37.07C14.002 37.07 13.6333 36.9953 13.33 36.846C13.0313 36.692 12.8027 36.475 12.644 36.195C12.4853 35.9103 12.3967 35.5697 12.378 35.173C12.3733 34.9817 12.371 34.7763 12.371 34.557C12.371 34.3377 12.3733 34.1277 12.378 33.927C12.3967 33.535 12.4853 33.1967 12.644 32.912C12.8073 32.6273 13.0383 32.4103 13.337 32.261C13.6403 32.107 14.0067 32.03 14.436 32.03C14.7533 32.03 15.038 32.072 15.29 32.156C15.542 32.24 15.7567 32.3567 15.934 32.506C16.1113 32.6507 16.249 32.821 16.347 33.017C16.445 33.213 16.4963 33.4253 16.501 33.654C16.5057 33.696 16.4917 33.731 16.459 33.759C16.431 33.787 16.396 33.801 16.354 33.801H15.689C15.6377 33.801 15.5957 33.7893 15.563 33.766C15.5303 33.738 15.507 33.6937 15.493 33.633C15.4183 33.325 15.29 33.115 15.108 33.003C14.926 32.891 14.6997 32.835 14.429 32.835C14.1163 32.835 13.8667 32.9237 13.68 33.101C13.4933 33.2737 13.393 33.5607 13.379 33.962C13.365 34.3447 13.365 34.7367 13.379 35.138C13.393 35.5393 13.4933 35.8287 13.68 36.006C13.8667 36.1787 14.1163 36.265 14.429 36.265C14.6997 36.265 14.926 36.209 15.108 36.097C15.2947 35.9803 15.423 35.7703 15.493 35.467C15.507 35.4017 15.5303 35.3573 15.563 35.334C15.5957 35.3107 15.6377 35.299 15.689 35.299H16.354C16.396 35.299 16.431 35.313 16.459 35.341C16.4917 35.369 16.5057 35.404 16.501 35.446C16.4963 35.6747 16.445 35.887 16.347 36.083C16.249 36.279 16.1113 36.4517 15.934 36.601C15.7567 36.7457 15.542 36.86 15.29 36.944C15.038 37.028 14.7533 37.07 14.436 37.07ZM17.4992 37C17.4525 37 17.4128 36.9837 17.3802 36.951C17.3475 36.9183 17.3312 36.8787 17.3312 36.832V32.268C17.3312 32.2213 17.3475 32.1817 17.3802 32.149C17.4128 32.1163 17.4525 32.1 17.4992 32.1H18.1502C18.1968 32.1 18.2365 32.1163 18.2692 32.149C18.3018 32.1817 18.3182 32.2213 18.3182 32.268V36.167H20.5372C20.5885 36.167 20.6305 36.1833 20.6632 36.216C20.6958 36.2487 20.7122 36.2907 20.7122 36.342V36.832C20.7122 36.8787 20.6958 36.9183 20.6632 36.951C20.6305 36.9837 20.5885 37 20.5372 37H17.4992ZM23.2132 37.07C22.7978 37.07 22.4408 37.0023 22.1422 36.867C21.8435 36.727 21.6102 36.5147 21.4422 36.23C21.2742 35.9407 21.1832 35.5813 21.1692 35.152C21.1645 34.9513 21.1622 34.753 21.1622 34.557C21.1622 34.361 21.1645 34.1603 21.1692 33.955C21.1832 33.5303 21.2765 33.1757 21.4492 32.891C21.6218 32.6063 21.8575 32.3917 22.1562 32.247C22.4595 32.1023 22.8118 32.03 23.2132 32.03C23.6145 32.03 23.9668 32.1023 24.2702 32.247C24.5735 32.3917 24.8115 32.6063 24.9842 32.891C25.1568 33.1757 25.2502 33.5303 25.2642 33.955C25.2735 34.1603 25.2782 34.361 25.2782 34.557C25.2782 34.753 25.2735 34.9513 25.2642 35.152C25.2502 35.5813 25.1592 35.9407 24.9912 36.23C24.8232 36.5147 24.5875 36.727 24.2842 36.867C23.9855 37.0023 23.6285 37.07 23.2132 37.07ZM23.2132 36.265C23.5165 36.265 23.7638 36.1763 23.9552 35.999C24.1465 35.817 24.2492 35.523 24.2632 35.117C24.2725 34.9117 24.2772 34.7227 24.2772 34.55C24.2772 34.3727 24.2725 34.1837 24.2632 33.983C24.2538 33.7123 24.2025 33.493 24.1092 33.325C24.0205 33.1523 23.8992 33.0287 23.7452 32.954C23.5912 32.8747 23.4138 32.835 23.2132 32.835C23.0172 32.835 22.8422 32.8747 22.6882 32.954C22.5342 33.0287 22.4105 33.1523 22.3172 33.325C22.2285 33.493 22.1795 33.7123 22.1702 33.983C22.1655 34.1837 22.1632 34.3727 22.1632 34.55C22.1632 34.7227 22.1655 34.9117 22.1702 35.117C22.1842 35.523 22.2868 35.817 22.4782 35.999C22.6695 36.1763 22.9145 36.265 23.2132 36.265ZM28.0874 37.07C27.6534 37.07 27.2847 36.9953 26.9814 36.846C26.6827 36.692 26.454 36.475 26.2954 36.195C26.1367 35.9103 26.048 35.5697 26.0294 35.173C26.0247 34.9817 26.0224 34.7763 26.0224 34.557C26.0224 34.3377 26.0247 34.1277 26.0294 33.927C26.048 33.535 26.1367 33.1967 26.2954 32.912C26.4587 32.6273 26.6897 32.4103 26.9884 32.261C27.2917 32.107 27.658 32.03 28.0874 32.03C28.4047 32.03 28.6894 32.072 28.9414 32.156C29.1934 32.24 29.408 32.3567 29.5854 32.506C29.7627 32.6507 29.9004 32.821 29.9984 33.017C30.0964 33.213 30.1477 33.4253 30.1524 33.654C30.157 33.696 30.143 33.731 30.1104 33.759C30.0824 33.787 30.0474 33.801 30.0054 33.801H29.3404C29.289 33.801 29.247 33.7893 29.2144 33.766C29.1817 33.738 29.1584 33.6937 29.1444 33.633C29.0697 33.325 28.9414 33.115 28.7594 33.003C28.5774 32.891 28.351 32.835 28.0804 32.835C27.7677 32.835 27.518 32.9237 27.3314 33.101C27.1447 33.2737 27.0444 33.5607 27.0304 33.962C27.0164 34.3447 27.0164 34.7367 27.0304 35.138C27.0444 35.5393 27.1447 35.8287 27.3314 36.006C27.518 36.1787 27.7677 36.265 28.0804 36.265C28.351 36.265 28.5774 36.209 28.7594 36.097C28.946 35.9803 29.0744 35.7703 29.1444 35.467C29.1584 35.4017 29.1817 35.3573 29.2144 35.334C29.247 35.3107 29.289 35.299 29.3404 35.299H30.0054C30.0474 35.299 30.0824 35.313 30.1104 35.341C30.143 35.369 30.157 35.404 30.1524 35.446C30.1477 35.6747 30.0964 35.887 29.9984 36.083C29.9004 36.279 29.7627 36.4517 29.5854 36.601C29.408 36.7457 29.1934 36.86 28.9414 36.944C28.6894 37.028 28.4047 37.07 28.0874 37.07ZM31.1505 37C31.1039 37 31.0642 36.9837 31.0315 36.951C30.9989 36.9183 30.9825 36.8787 30.9825 36.832V32.275C30.9825 32.2237 30.9989 32.1817 31.0315 32.149C31.0642 32.1163 31.1039 32.1 31.1505 32.1H31.7665C31.8179 32.1 31.8599 32.1163 31.8925 32.149C31.9252 32.1817 31.9415 32.2237 31.9415 32.275V33.913L33.5235 32.226C33.5422 32.2027 33.5725 32.177 33.6145 32.149C33.6612 32.1163 33.7219 32.1 33.7965 32.1H34.4895C34.5269 32.1 34.5595 32.114 34.5875 32.142C34.6202 32.17 34.6365 32.205 34.6365 32.247C34.6365 32.2797 34.6272 32.3077 34.6085 32.331L32.6835 34.445L34.7415 36.762C34.7649 36.79 34.7765 36.8203 34.7765 36.853C34.7765 36.895 34.7602 36.93 34.7275 36.958C34.6995 36.986 34.6669 37 34.6295 37H33.9085C33.8292 37 33.7662 36.9837 33.7195 36.951C33.6775 36.9137 33.6495 36.888 33.6355 36.874L31.9415 35.019V36.832C31.9415 36.8787 31.9252 36.9183 31.8925 36.951C31.8599 36.9837 31.8179 37 31.7665 37H31.1505Z" fill="white"/>
<defs>
<radialGradient id="paint0_radial_205_147" cx="0" cy="0" r="1" gradientUnits="userSpaceOnUse" gradientTransform="translate(9.85714 10.8429) rotate(47.7263) scale(53.7302)">
<stop stop-color="#E0D8D8"/>
<stop offset="1" stop-color="#B3A1A1"/>
</radialGradient>
<radialGradient id="paint1_radial_205_147" cx="0" cy="0" r="1" gradientUnits="userSpaceOnUse" gradientTransform="translate(23 16) rotate(-39.6991) scale(34.442)">
<stop stop-color="#D9D9D9"/>
<stop offset="1" stop-color="#8D8383"/>
</radialGradient>
</defs>
</svg>
